# xmcd
#
# Track frame offsets:
#	150
#	1950
#	35561
#	50223
#	76797
#	101020
#	115586
#	141404
#	185895
#	257054
#	258435
#	276310
#
# Disc length: 3887 seconds
#
# Revision: 1
# Processed by: cddbd v1.5.2PL0 Copyright (c) Steve Scherf et al.
# Submitted via: audiograbber 1.83.01
#
DISCID=ad0f2d0c
DTITLE=Grateful Dead - 71-08-15 Berkeley Community Theatre, Berkeley CA
DYEAR=1900
DGENRE=
TTITLE0=Tuning
TTITLE1=Truckin'
TTITLE2=Drums
TTITLE3=The Other One
TTITLE4=Jam
TTITLE5=Me and My Uncle
TTITLE6=The Other One
TTITLE7=Wharf Rat
TTITLE8=Turn On Your Lovelight
TTITLE9=Bill Graham speaks
TTITLE10=Johnny B Goode
TTITLE11=And We Bid You Goodnight
EXTD=
EXTT0=
EXTT1=
EXTT2=
EXTT3=
EXTT4=
EXTT5=
EXTT6=
EXTT7=
EXTT8=
EXTT9=
EXTT10=
EXTT11=
PLAYORDER=
